<mxfile host="65bd71144e">
    <diagram id="WC00QCna9ZJfXoqbImA7" name="第 1 页">
        <mxGraphModel dx="1057" dy="705" grid="0" gridSize="10" guides="1" tooltips="1" connect="1" arrows="1" fold="1" page="1" pageScale="1" pageWidth="827" pageHeight="1169" math="0" shadow="0">
            <root>
                <mxCell id="0"/>
                <mxCell id="1" parent="0"/>
                <mxCell id="10" value="" style="edgeStyle=none;html=1;" parent="1" source="2" target="9" edge="1">
                    <mxGeometry relative="1" as="geometry"/>
                </mxCell>
                <mxCell id="12" value="" style="edgeStyle=none;html=1;" parent="1" source="2" target="11" edge="1">
                    <mxGeometry relative="1" as="geometry"/>
                </mxCell>
                <mxCell id="19" style="edgeStyle=none;html=1;strokeWidth=4;fillColor=#008a00;strokeColor=#005700;" parent="1" source="2" edge="1">
                    <mxGeometry relative="1" as="geometry">
                        <mxPoint x="251" y="321" as="targetPoint"/>
                    </mxGeometry>
                </mxCell>
                <mxCell id="2" value="DATA" style="whiteSpace=wrap;html=1;aspect=fixed;" parent="1" vertex="1">
                    <mxGeometry x="385.5" y="187" width="80" height="80" as="geometry"/>
                </mxCell>
                <mxCell id="14" style="edgeStyle=none;html=1;entryX=1;entryY=0.75;entryDx=0;entryDy=0;strokeWidth=2;fillColor=#008a00;strokeColor=#005700;" parent="1" source="7" target="8" edge="1">
                    <mxGeometry relative="1" as="geometry"/>
                </mxCell>
                <mxCell id="7" value="UI_Modules" style="whiteSpace=wrap;html=1;aspect=fixed;" parent="1" vertex="1">
                    <mxGeometry x="363" y="458" width="80" height="80" as="geometry"/>
                </mxCell>
                <mxCell id="13" style="edgeStyle=none;html=1;entryX=0;entryY=0.25;entryDx=0;entryDy=0;strokeWidth=2;fillColor=#008a00;strokeColor=#005700;" parent="1" source="8" target="7" edge="1">
                    <mxGeometry relative="1" as="geometry"/>
                </mxCell>
                <mxCell id="8" value="MainWindow" style="whiteSpace=wrap;html=1;aspect=fixed;" parent="1" vertex="1">
                    <mxGeometry x="204" y="327" width="80" height="80" as="geometry"/>
                </mxCell>
                <mxCell id="9" value="DATA_Base(Server)" style="whiteSpace=wrap;html=1;" parent="1" vertex="1">
                    <mxGeometry x="479" y="112" width="120" height="60" as="geometry"/>
                </mxCell>
                <mxCell id="11" value="DATA_Sync(Clent)" style="whiteSpace=wrap;html=1;" parent="1" vertex="1">
                    <mxGeometry x="271" y="112" width="120" height="60" as="geometry"/>
                </mxCell>
                <mxCell id="17" value="互相调用" style="text;html=1;align=center;verticalAlign=middle;resizable=0;points=[];autosize=1;strokeColor=none;fillColor=none;" parent="1" vertex="1">
                    <mxGeometry x="264" y="444" width="58" height="18" as="geometry"/>
                </mxCell>
                <mxCell id="20" value="类 实例" style="text;html=1;align=center;verticalAlign=middle;resizable=0;points=[];autosize=1;strokeColor=none;fillColor=none;" parent="1" vertex="1">
                    <mxGeometry x="279" y="243" width="49" height="18" as="geometry"/>
                </mxCell>
                <mxCell id="21" value="单向调用" style="text;html=1;align=center;verticalAlign=middle;resizable=0;points=[];autosize=1;strokeColor=none;fillColor=none;" parent="1" vertex="1">
                    <mxGeometry x="316" y="285" width="58" height="18" as="geometry"/>
                </mxCell>
                <mxCell id="22" value="&lt;h1&gt;DATA-&amp;gt; MW的单向调用&lt;/h1&gt;&lt;p&gt;Signal方向允许:&amp;nbsp; MW发送给DATA， DATA不能发给MW(控制UI的SLOT处于MW里，而DATA不能调用MW)&lt;/p&gt;&lt;p&gt;&amp;nbsp;&lt;/p&gt;" style="text;html=1;strokeColor=none;fillColor=none;spacing=5;spacingTop=-20;whiteSpace=wrap;overflow=hidden;rounded=0;" parent="1" vertex="1">
                    <mxGeometry x="108" y="606" width="631" height="81" as="geometry"/>
                </mxCell>
                <mxCell id="25" value="&lt;h1&gt;DATA_Sync与DATA_Base通信&lt;/h1&gt;&lt;p&gt;由于FileSync与FileBase这两个类都实例在MainWindow里，在MainWindow实现Connect，从而实现两个通信。&lt;/p&gt;&lt;p&gt;同理，依靠这，UIModules也可以访问Data数据。&lt;/p&gt;&lt;p&gt;&amp;nbsp;&lt;/p&gt;" style="text;html=1;strokeColor=none;fillColor=none;spacing=5;spacingTop=-20;whiteSpace=wrap;overflow=hidden;rounded=0;" parent="1" vertex="1">
                    <mxGeometry x="110" y="709" width="640" height="104" as="geometry"/>
                </mxCell>
                <mxCell id="26" value="&lt;h1&gt;互相调用实现UI分块处理&lt;/h1&gt;&lt;p&gt;本质原理： 头文件互相包含&lt;/p&gt;&lt;p&gt;在MW中实例分块类的时候 会报错问题：&amp;nbsp;&lt;/p&gt;&lt;h1 class=&quot;title-article&quot; id=&quot;articleContentId&quot; style=&quot;box-sizing: border-box ; outline: 0px ; margin: 0px ; padding: 0px ; font-family: &amp;#34;pingfang sc&amp;#34; , &amp;#34;microsoft yahei&amp;#34; , &amp;#34;simhei&amp;#34; , &amp;#34;arial&amp;#34; , &amp;#34;simsun&amp;#34; ; font-size: 28px ; overflow-wrap: break-word ; color: rgb(34 , 34 , 38) ; word-break: break-all ; background-color: rgb(255 , 255 , 255)&quot;&gt;XX does not name a type&lt;/h1&gt;&lt;p&gt;&amp;nbsp;还应将分块的类进行 &lt;b&gt;&lt;font style=&quot;font-size: 16px&quot; color=&quot;#cc0066&quot;&gt;前置声明&amp;nbsp; 在MW.h 的类前 声明 Class XX;&lt;/font&gt;&lt;/b&gt;&lt;/p&gt;" style="text;html=1;strokeColor=none;fillColor=none;spacing=5;spacingTop=-20;whiteSpace=wrap;overflow=hidden;rounded=0;" parent="1" vertex="1">
                    <mxGeometry x="110" y="830" width="631" height="230" as="geometry"/>
                </mxCell>
                <mxCell id="27" value="&lt;h1&gt;UI_Modules之间互相通信&lt;/h1&gt;&lt;p&gt;各模块的class都实例在MainWindow里面，则各模块是可以互相通信的。&lt;/p&gt;&lt;p&gt;&amp;nbsp;&lt;/p&gt;" style="text;html=1;strokeColor=none;fillColor=none;spacing=5;spacingTop=-20;whiteSpace=wrap;overflow=hidden;rounded=0;" vertex="1" parent="1">
                    <mxGeometry x="110" y="1044" width="631" height="81" as="geometry"/>
                </mxCell>
            </root>
        </mxGraphModel>
    </diagram>
</mxfile>